<?xml version="1.0" standalone="no"?>
<!DOCTYPE svg PUBLIC "-//W3C//DTD SVG 20010904//EN"
 "http://www.w3.org/TR/2001/REC-SVG-20010904/DTD/svg10.dtd">
<svg version="1.0" xmlns="http://www.w3.org/2000/svg"
 width="500.000000pt" height="500.000000pt" viewBox="0 0 500.000000 500.000000"
 preserveAspectRatio="xMidYMid meet">

<g transform="translate(0.000000,500.000000) scale(0.100000,-0.100000)"
fill="#eee2ca" stroke="none">
<path d="M3250 4084 c259 -150 376 -233 499 -355 92 -91 222 -254 285 -359 89
-146 155 -340 187 -545 19 -119 16 -422 -5 -515 -73 -328 -257 -670 -459 -853
-83 -75 -101 -79 -31 -6 207 214 351 473 440 794 22 77 26 118 31 288 4 130 2
229 -6 290 -13 93 -63 263 -83 282 -8 7 -9 4 -3 -10 60 -156 79 -293 72 -525
-4 -156 -9 -199 -30 -275 -89 -315 -222 -571 -409 -785 -77 -87 -220 -211
-318 -273 -156 -98 -364 -181 -568 -224 -119 -26 -143 -27 -382 -27 -239 0
-263 1 -381 27 -524 112 -890 390 -1110 844 -101 208 -149 402 -149 605 0 367
102 749 269 1006 22 34 37 62 32 62 -4 0 -30 -24 -58 -52 -158 -168 -262 -380
-320 -657 -23 -111 -27 -150 -27 -321 -1 -169 2 -210 23 -305 133 -622 510
-1043 1116 -1244 232 -77 295 -86 595 -85 244 1 276 3 402 27 258 50 482 139
678 268 107 71 296 252 378 364 170 231 297 548 347 870 39 249 -3 571 -108
825 -147 357 -405 625 -785 818 -141 71 -211 97 -122 46z"/>
<path d="M2551 3938 c-88 -25 -158 -104 -198 -223 l-17 -50 -17 57 c-22 75
-61 140 -94 158 -69 37 -134 3 -176 -93 -19 -45 -21 -64 -16 -147 6 -116 29
-185 103 -311 115 -199 210 -410 245 -547 l13 -53 37 109 c41 122 107 281 232
553 94 206 107 248 107 346 -1 103 -41 175 -113 202 -33 13 -60 13 -106 -1z"/>
<path d="M2785 3895 c41 -113 45 -180 16 -300 -26 -107 -74 -216 -156 -355
-90 -151 -148 -275 -205 -438 l-47 -134 -32 98 c-44 132 -103 247 -212 411
-158 237 -194 337 -187 507 3 56 8 110 12 121 6 16 6 17 -3 5 -6 -8 -21 -46
-32 -84 -18 -56 -21 -85 -16 -165 7 -147 59 -274 172 -421 153 -199 226 -326
266 -465 11 -38 23 -77 26 -85 2 -8 24 41 47 110 74 216 122 318 229 484 82
128 149 266 171 352 31 122 16 277 -35 349 -12 17 -18 21 -14 10z"/>
<path d="M3465 3599 c282 -297 411 -684 350 -1045 -33 -196 -132 -453 -237
-620 -125 -198 -338 -385 -563 -495 -251 -123 -527 -165 -813 -124 -437 62
-818 395 -980 855 -65 186 -76 256 -77 475 0 156 4 219 18 285 38 180 112 356
205 490 41 60 42 62 8 25 -201 -224 -307 -533 -308 -900 0 -271 30 -402 139
-618 252 -494 744 -749 1350 -699 557 46 945 300 1174 767 175 359 223 728
133 1043 -66 234 -250 493 -444 625 -38 26 -32 17 45 -64z"/>
<path d="M3330 3530 c0 -5 29 -42 65 -81 119 -130 202 -292 243 -479 21 -96
23 -396 3 -485 -64 -288 -202 -519 -424 -713 -183 -159 -386 -258 -597 -292
-362 -57 -770 95 -1056 392 -139 145 -222 291 -271 476 -47 178 -44 442 8 639
11 41 18 77 16 80 -8 7 -57 -127 -78 -211 -28 -114 -35 -304 -15 -432 18 -120
64 -269 116 -379 155 -325 444 -542 835 -627 83 -18 408 -17 500 1 556 110
958 529 1060 1105 24 135 16 321 -19 461 -48 185 -161 382 -289 503 -51 47
-97 67 -97 42z"/>
<path d="M1840 3173 c0 -75 22 -160 62 -237 23 -45 70 -99 180 -208 161 -161
185 -197 238 -356 l29 -87 -5 80 c-16 249 -63 357 -239 545 -46 49 -125 142
-175 206 l-90 116 0 -59z"/>
<path d="M2833 3208 c-5 -7 -18 -30 -28 -51 -11 -21 -62 -93 -114 -160 -160
-206 -213 -301 -281 -494 l-30 -88 27 35 c15 19 101 110 190 202 245 252 283
313 283 454 0 91 -21 136 -47 102z"/>
<path d="M3250 3118 c0 -18 7 -67 16 -108 21 -99 21 -273 -1 -368 -38 -164
-124 -313 -251 -431 -89 -84 -171 -139 -315 -213 -128 -66 -169 -97 -215 -164
-30 -43 -71 -144 -59 -144 2 0 32 20 67 44 81 56 109 70 216 107 433 153 672
456 672 851 0 197 -63 458 -111 458 -15 0 -19 -7 -19 -32z"/>
<path d="M2989 3028 c-46 -156 -135 -285 -272 -392 -199 -155 -294 -312 -312
-516 l-7 -75 41 81 c51 103 94 147 205 209 231 130 365 348 392 642 7 73 1
123 -16 123 -5 0 -19 -33 -31 -72z"/>
<path d="M3487 2913 c11 -194 -29 -444 -97 -606 -124 -289 -358 -483 -675
-557 -49 -11 -116 -35 -149 -53 -58 -30 -205 -162 -193 -173 3 -3 25 1 49 10
25 8 82 20 127 26 252 34 517 167 701 350 117 117 212 297 262 498 32 128 32
378 -1 510 -12 50 -24 92 -26 92 -2 0 -2 -44 2 -97z"/>
<path d="M1664 2854 c-17 -119 19 -320 81 -446 76 -156 193 -264 390 -362 72
-36 135 -75 170 -107 30 -28 55 -48 55 -44 0 4 -21 48 -47 98 -54 104 -149
207 -291 317 -98 75 -196 192 -247 296 -30 60 -60 161 -81 272 -7 37 -22 25
-30 -24z"/>
<path d="M1810 2853 c0 -67 27 -168 64 -240 49 -99 135 -201 268 -322 63 -56
134 -127 158 -156 25 -30 46 -52 48 -50 6 6 -73 158 -107 209 -17 24 -43 77
-58 118 -25 68 -35 81 -149 193 -104 103 -128 132 -163 203 -23 45 -46 82 -51
82 -6 0 -10 -17 -10 -37z"/>
<path d="M4114 2692 c0 -135 -5 -212 -18 -277 -20 -105 -47 -207 -53 -201 -2
2 3 56 12 120 18 129 15 176 -5 81 -6 -33 -29 -112 -51 -176 -211 -636 -678
-1034 -1318 -1123 -149 -21 -408 -21 -509 0 -417 86 -800 335 -1013 658 -33
49 -59 86 -59 83 0 -4 18 -42 39 -85 50 -99 114 -186 215 -291 45 -47 67 -75
49 -63 -53 37 -202 202 -258 287 -72 109 -121 209 -160 329 -43 131 -53 201
-64 431 -9 186 -15 225 -31 225 -28 0 -31 -273 -5 -425 33 -193 115 -402 222
-565 117 -179 303 -368 444 -451 157 -94 393 -177 609 -215 160 -29 486 -26
635 4 223 47 432 133 616 255 136 90 194 141 280 245 149 180 262 368 342 567
86 215 113 364 104 579 -9 218 -22 223 -23 8z"/>
<path d="M3149 2821 c-30 -83 -111 -233 -166 -306 -78 -104 -206 -225 -316
-299 -49 -33 -103 -76 -121 -97 -39 -46 -82 -131 -95 -188 l-9 -41 54 49 c29
27 108 82 175 123 232 140 358 265 439 432 56 117 85 281 60 341 -7 18 -9 17
-21 -14z"/>
<path d="M1352 2815 c-17 -37 -15 -226 3 -331 44 -254 145 -457 309 -619 123
-122 250 -199 441 -265 50 -18 110 -43 134 -56 l43 -24 -6 32 c-9 46 -51 114
-89 142 -17 13 -74 42 -126 65 -294 126 -506 339 -608 613 -45 119 -63 207
-72 345 -4 62 -10 115 -12 118 -3 3 -11 -6 -17 -20z"/>
<path d="M1536 2696 c-21 -170 26 -360 126 -513 101 -155 250 -278 477 -391
83 -41 124 -68 153 -102 l41 -45 -5 66 c-6 70 -36 149 -71 187 -12 13 -67 47
-122 74 -202 102 -353 227 -450 372 -80 121 -117 220 -134 361 l-7 60 -8 -69z"/>
</g>
</svg>
