<svg width="357" height="420" viewBox="0 0 357 420" fill="none" xmlns="http://www.w3.org/2000/svg">
<g filter="url(#filter0_d_68_1687)">
<path fill-rule="evenodd" clip-rule="evenodd" d="M68.3896 69.324C68.4782 69.7463 68.2078 70.1605 67.7855 70.2491C64.9291 70.8488 62.6609 71.565 61.1262 72.3412C60.3576 72.7299 59.8123 73.1143 59.4688 73.4745C59.1285 73.8314 59.0312 74.1139 59.0312 74.3275C59.0312 74.533 59.1208 74.801 59.4296 75.1385C59.7423 75.4803 60.2407 75.8475 60.9482 76.2217C62.3618 76.9693 64.4587 77.6663 67.1158 78.2607C72.4173 79.4465 79.7793 80.1868 87.9375 80.1868C96.0957 80.1868 103.458 79.4465 108.759 78.2607C111.416 77.6663 113.513 76.9693 114.927 76.2217C115.634 75.8475 116.133 75.4803 116.445 75.1385C116.754 74.801 116.844 74.533 116.844 74.3275C116.844 74.1139 116.747 73.8314 116.406 73.4745C116.063 73.1143 115.517 72.7299 114.749 72.3412C113.214 71.565 110.946 70.8488 108.089 70.2491C107.667 70.1605 107.397 69.7463 107.485 69.324C107.574 68.9017 107.988 68.6313 108.411 68.72C111.325 69.3317 113.744 70.082 115.454 70.9469C116.308 71.3788 117.024 71.8587 117.537 72.3962C118.053 72.9372 118.406 73.5861 118.406 74.3275C118.406 75.0389 118.08 75.666 117.598 76.1931C117.12 76.7159 116.452 77.1826 115.657 77.6029C114.066 78.4443 111.816 79.1781 109.1 79.7855C103.657 81.0031 96.1752 81.7493 87.9375 81.7493C79.6998 81.7493 72.218 81.0031 66.7747 79.7855C64.0594 79.1781 61.8087 78.4443 60.2178 77.6029C59.423 77.1826 58.755 76.7159 58.2767 76.1931C57.7945 75.666 57.4688 75.0389 57.4688 74.3275C57.4688 73.5861 57.8221 72.9372 58.338 72.3962C58.8506 71.8587 59.5671 71.3788 60.421 70.9469C62.1312 70.082 64.5505 69.3317 67.4645 68.72C67.8868 68.6313 68.3009 68.9017 68.3896 69.324Z" fill="#AC7349"/>
<path fill-rule="evenodd" clip-rule="evenodd" d="M110.992 63.5605C110.775 63.2048 110.709 62.7771 110.808 62.3725C111.036 61.4492 111.192 60.4887 111.282 59.5089C111.324 59.0482 111.569 58.63 111.949 58.3668C112.329 58.1036 112.807 58.0224 113.253 58.1451C113.648 58.2539 114.066 58.3125 114.5 58.3125C117.089 58.3125 119.188 56.2138 119.188 53.625C119.188 51.0362 117.089 48.9375 114.5 48.9375C114.093 48.9375 113.7 48.989 113.327 49.0851C112.859 49.2055 112.362 49.1028 111.98 48.8068C111.598 48.5108 111.375 48.055 111.375 47.5719V44.3796C111.375 43.6164 111.926 42.9649 112.679 42.8387C113.272 42.7391 113.881 42.6875 114.5 42.6875C120.541 42.6875 125.438 47.5844 125.438 53.625C125.438 59.6656 120.541 64.5625 114.5 64.5625C113.629 64.5625 112.78 64.4604 111.964 64.2667C111.559 64.1704 111.209 63.9162 110.992 63.5605ZM114.387 59.874C113.851 59.8645 113.332 59.7876 112.838 59.6516C112.79 60.1764 112.724 60.698 112.639 61.2141C112.571 61.6239 112.492 62.0302 112.4 62.4318C112.376 62.537 112.351 62.6419 112.325 62.7465C112.828 62.8659 113.346 62.9448 113.877 62.9796C114.083 62.9931 114.291 63 114.5 63C119.678 63 123.875 58.8027 123.875 53.625C123.875 48.4473 119.678 44.25 114.5 44.25C113.968 44.25 113.446 44.2944 112.938 44.3796V47.5719C113.437 47.4434 113.961 47.375 114.5 47.375C117.952 47.375 120.75 50.1732 120.75 53.625C120.75 57.0768 117.952 59.875 114.5 59.875C114.462 59.875 114.424 59.8747 114.387 59.874Z" fill="#AC7349"/>
<path fill-rule="evenodd" clip-rule="evenodd" d="M63.7188 37.2188C64.1502 37.2188 64.5 37.5685 64.5 38V57.5381C64.5 62.9912 66.386 68.2702 71.1114 70.7768C74.9748 72.8263 80.5412 74.7188 87.9375 74.7188C95.3338 74.7188 100.9 72.8263 104.764 70.7768C109.489 68.2702 111.375 62.9912 111.375 57.5381V38C111.375 37.5685 111.725 37.2188 112.156 37.2188C112.588 37.2188 112.938 37.5685 112.938 38V57.5381C112.938 63.2727 110.95 69.2641 105.496 72.1572C101.428 74.3149 95.6123 76.2812 87.9375 76.2812C80.2627 76.2812 74.4468 74.3149 70.3792 72.1572C64.9254 69.2641 62.9375 63.2727 62.9375 57.5381V38C62.9375 37.5685 63.2873 37.2188 63.7188 37.2188Z" fill="#AC7349"/>
<path fill-rule="evenodd" clip-rule="evenodd" d="M66.0625 41.7188V57.8686C66.0625 62.0642 67.4509 66.25 70.9907 68.5022C74.5786 70.785 80.1745 73.1569 87.9375 73.1569C95.7005 73.1569 101.296 70.785 104.884 68.5022C108.424 66.25 109.812 62.0642 109.812 57.8686V41.7188C106.427 42.7429 97.9094 43.4694 87.9375 43.4694C77.9656 43.4694 69.4483 42.7429 66.0625 41.7188Z" fill="#75370A"/>
<path d="M104.884 68.5022C108.424 66.25 109.812 62.0642 109.812 57.8686V41.7188C107.987 42.2709 104.67 42.7365 100.438 43.0485V70.7997C102.164 70.091 103.644 69.2913 104.884 68.5022Z" fill="#572908"/>
<path d="M70.9907 68.5022C67.4509 66.25 66.0625 62.0642 66.0625 57.8686V41.7188C67.5357 42.1644 69.9804 42.5536 73.0938 42.8512V69.7134C72.3288 69.316 71.6281 68.9077 70.9907 68.5022Z" fill="#8E4917"/>
<path fill-rule="evenodd" clip-rule="evenodd" d="M104.691 41.0948C100.373 41.5986 94.4504 41.9062 87.9375 41.9062C81.4246 41.9062 75.5019 41.5986 71.1836 41.0948C69.035 40.8442 67.2266 40.5386 65.9264 40.18C65.2884 40.004 64.6819 39.7913 64.2023 39.5178C63.9628 39.3813 63.6805 39.1883 63.4425 38.9148C63.1956 38.6313 62.9375 38.188 62.9375 37.6094C62.9375 37.0308 63.1956 36.5875 63.4425 36.3039C63.6805 36.0305 63.9628 35.8374 64.2023 35.7009C64.6819 35.4274 65.2884 35.2148 65.9264 35.0388C67.2266 34.6801 69.035 34.3746 71.1836 34.1239C75.5019 33.6201 81.4246 33.3125 87.9375 33.3125C94.4504 33.3125 100.373 33.6201 104.691 34.1239C106.84 34.3746 108.648 34.6801 109.949 35.0388C110.587 35.2148 111.193 35.4274 111.673 35.7009C111.912 35.8374 112.195 36.0305 112.433 36.3039C112.679 36.5875 112.938 37.0308 112.938 37.6094C112.938 38.188 112.679 38.6313 112.433 38.9148C112.195 39.1883 111.912 39.3813 111.673 39.5178C111.193 39.7913 110.587 40.004 109.949 40.18C108.648 40.5386 106.84 40.8442 104.691 41.0948ZM87.9375 40.3438C100.882 40.3438 111.375 39.1195 111.375 37.6094C111.375 36.0992 100.882 34.875 87.9375 34.875C74.9933 34.875 64.5 36.0992 64.5 37.6094C64.5 39.1195 74.9933 40.3438 87.9375 40.3438Z" fill="#AC7349"/>
<path fill-rule="evenodd" clip-rule="evenodd" d="M69.1875 44.25C69.619 44.25 69.9688 44.5998 69.9688 45.0312V49.7188C69.9688 50.1502 69.619 50.5 69.1875 50.5C68.756 50.5 68.4062 50.1502 68.4062 49.7188V45.0312C68.4062 44.5998 68.756 44.25 69.1875 44.25Z" fill="white"/>
<path d="M109.812 37.6094C109.812 38.6881 100.019 39.5625 87.9375 39.5625C75.8563 39.5625 66.0625 38.6881 66.0625 37.6094C66.0625 36.5307 75.8563 35.6562 87.9375 35.6562C100.019 35.6562 109.812 36.5307 109.812 37.6094Z" fill="#75370A"/>
<path d="M101.219 64.0661C101.219 64.6936 100.71 65.2024 100.082 65.2024C99.4548 65.2024 98.946 64.6936 98.946 64.0661C98.946 63.4385 99.4548 62.9297 100.082 62.9297C100.71 62.9297 101.219 63.4385 101.219 64.0661Z" fill="#572908"/>
<path d="M97.8096 61.7926C97.8096 62.4202 97.3008 62.929 96.6732 62.929C96.0456 62.929 95.5369 62.4202 95.5369 61.7926C95.5369 61.165 96.0456 60.6562 96.6732 60.6562C97.3008 60.6562 97.8096 61.165 97.8096 61.7926Z" fill="#572908"/>
<path d="M95.679 58.6676C95.679 59.2952 95.1702 59.804 94.5426 59.804C93.915 59.804 93.4062 59.2952 93.4062 58.6676C93.4062 58.04 93.915 57.5312 94.5426 57.5312C95.1702 57.5312 95.679 58.04 95.679 58.6676Z" fill="#572908"/>
<path d="M92.696 62.4324C92.696 62.903 92.3144 63.2846 91.8437 63.2846C91.373 63.2846 90.9915 62.903 90.9915 62.4324C90.9915 61.9617 91.373 61.5801 91.8437 61.5801C92.3144 61.5801 92.696 61.9617 92.696 62.4324Z" fill="#572908"/>
<path d="M91.2045 59.1648C91.2045 59.6355 90.823 60.017 90.3523 60.017C89.8816 60.017 89.5 59.6355 89.5 59.1648C89.5 58.6941 89.8816 58.3125 90.3523 58.3125C90.823 58.3125 91.2045 58.6941 91.2045 59.1648Z" fill="#572908"/>
<path d="M88.8608 63.8523C88.8608 64.323 88.4792 64.7045 88.0085 64.7045C87.5378 64.7045 87.1562 64.323 87.1562 63.8523C87.1562 63.3816 87.5378 63 88.0085 63C88.4792 63 88.8608 63.3816 88.8608 63.8523Z" fill="#572908"/>
<path d="M88.8608 69.321C88.8608 69.7917 88.4792 70.1733 88.0085 70.1733C87.5378 70.1733 87.1562 69.7917 87.1562 69.321C87.1562 68.8503 87.5378 68.4688 88.0085 68.4688C88.4792 68.4688 88.8608 68.8503 88.8608 69.321Z" fill="#572908"/>
<path d="M93.2642 69.7477C93.2642 70.3753 92.7554 70.8841 92.1278 70.8841C91.5002 70.8841 90.9915 70.3753 90.9915 69.7477C90.9915 69.1201 91.5002 68.6113 92.1278 68.6113C92.7554 68.6113 93.2642 69.1201 93.2642 69.7477Z" fill="#572908"/>
<path d="M91.2045 65.8406C91.2045 66.3113 90.823 66.6928 90.3523 66.6928C89.8816 66.6928 89.5 66.3113 89.5 65.8406C89.5 65.3699 89.8816 64.9883 90.3523 64.9883C90.823 64.9883 91.2045 65.3699 91.2045 65.8406Z" fill="#572908"/>
<path d="M96.6732 66.0533C96.6732 66.8378 96.0372 67.4737 95.2527 67.4737C94.4682 67.4737 93.8323 66.8378 93.8323 66.0533C93.8323 65.2688 94.4682 64.6328 95.2527 64.6328C96.0372 64.6328 96.6732 65.2688 96.6732 66.0533Z" fill="#572908"/>
<path d="M101.716 58.1705C101.716 58.9549 101.08 59.5909 100.295 59.5909C99.511 59.5909 98.875 58.9549 98.875 58.1705C98.875 57.386 99.511 56.75 100.295 56.75C101.08 56.75 101.716 57.386 101.716 58.1705Z" fill="#572908"/>
<path d="M100.082 68.0426C100.082 68.6702 99.5735 69.179 98.9459 69.179C98.3183 69.179 97.8096 68.6702 97.8096 68.0426C97.8096 67.415 98.3183 66.9062 98.9459 66.9062C99.5735 66.9062 100.082 67.415 100.082 68.0426Z" fill="#572908"/>
</g>
<defs>
<filter id="filter0_d_68_1687" x="-234" y="-167" width="595" height="595" filterUnits="userSpaceOnUse" color-interpolation-filters="sRGB">
<feFlood flood-opacity="0" result="BackgroundImageFix"/>
<feColorMatrix in="SourceAlpha" type="matrix" values="0 0 0 0 0 0 0 0 0 0 0 0 0 0 0 0 0 0 127 0" result="hardAlpha"/>
<feOffset dy="4"/>
<feGaussianBlur stdDeviation="2"/>
<feComposite in2="hardAlpha" operator="out"/>
<feColorMatrix type="matrix" values="0 0 0 0 0 0 0 0 0 0 0 0 0 0 0 0 0 0 0.25 0"/>
<feBlend mode="normal" in2="BackgroundImageFix" result="effect1_dropShadow_68_1687"/>
<feBlend mode="normal" in="SourceGraphic" in2="effect1_dropShadow_68_1687" result="shape"/>
</filter>
</defs>
</svg>
