<svg xmlns="http://www.w3.org/2000/svg" fill="none" viewBox="129.98 70.31 396.06 419.7">
<g filter="url(#filter0_d_16_8)">
<path d="M280.096 198.688V199.904C278.731 200.203 277.259 200.8 275.68 201.696C274.144 202.592 272.523 204.043 270.816 206.048L258.784 220.384L262.496 215.072L277.728 238.816C278.325 239.797 278.965 240.587 279.648 241.184C280.331 241.781 281.227 242.293 282.336 242.72V244C280.843 243.915 279.179 243.872 277.344 243.872C275.509 243.829 273.845 243.808 272.352 243.808C271.456 243.808 270.368 243.829 269.088 243.872C267.808 243.872 266.187 243.915 264.224 244V242.72C265.973 242.635 267.019 242.4 267.36 242.016C267.744 241.589 267.595 240.864 266.912 239.84L257.632 224.8C257.035 223.819 256.501 223.093 256.032 222.624C255.563 222.112 255.093 221.771 254.624 221.6C254.155 221.387 253.536 221.259 252.768 221.216V219.872C254.645 219.829 256.309 219.317 257.76 218.336C259.253 217.355 260.875 215.861 262.624 213.856L266.4 209.312C268.021 207.392 268.96 205.749 269.216 204.384C269.515 202.976 269.237 201.888 268.384 201.12C267.573 200.352 266.315 199.947 264.608 199.904V198.688C265.675 198.731 266.677 198.773 267.616 198.816C268.597 198.816 269.6 198.837 270.624 198.88C271.691 198.88 272.843 198.88 274.08 198.88C275.317 198.88 276.427 198.859 277.408 198.816C278.432 198.773 279.328 198.731 280.096 198.688ZM257.952 198.688V199.968C256.587 200.011 255.541 200.181 254.816 200.48C254.133 200.736 253.685 201.248 253.472 202.016C253.259 202.741 253.152 203.893 253.152 205.472V237.216C253.152 238.752 253.259 239.904 253.472 240.672C253.728 241.44 254.197 241.952 254.88 242.208C255.563 242.464 256.587 242.635 257.952 242.72V244C256.8 243.915 255.349 243.872 253.6 243.872C251.851 243.829 250.08 243.808 248.288 243.808C246.24 243.808 244.299 243.829 242.464 243.872C240.672 243.872 239.243 243.915 238.176 244V242.72C239.541 242.635 240.565 242.464 241.248 242.208C241.931 241.952 242.379 241.44 242.592 240.672C242.848 239.904 242.976 238.752 242.976 237.216V205.472C242.976 203.893 242.848 202.741 242.592 202.016C242.379 201.248 241.909 200.736 241.184 200.48C240.501 200.181 239.499 200.011 238.176 199.968V198.688C239.243 198.731 240.672 198.773 242.464 198.816C244.299 198.859 246.24 198.88 248.288 198.88C250.08 198.88 251.851 198.859 253.6 198.816C255.349 198.773 256.8 198.731 257.952 198.688Z" fill="black"/>
<path d="M359.176 198.688C360.243 198.731 361.672 198.773 363.464 198.816C365.299 198.859 367.112 198.88 368.904 198.88C370.952 198.88 372.936 198.859 374.856 198.816C376.776 198.773 378.141 198.752 378.952 198.752C384.883 198.752 389.32 199.925 392.264 202.272C395.208 204.619 396.68 207.648 396.68 211.36C396.68 212.896 396.381 214.517 395.784 216.224C395.187 217.888 394.163 219.445 392.712 220.896C391.304 222.304 389.363 223.456 386.888 224.352C384.413 225.248 381.299 225.696 377.544 225.696H371.016V224.416H376.904C379.421 224.416 381.32 223.84 382.6 222.688C383.923 221.536 384.819 220.021 385.288 218.144C385.8 216.267 386.056 214.24 386.056 212.064C386.056 208.011 385.459 204.981 384.264 202.976C383.069 200.971 381.021 199.968 378.12 199.968C376.456 199.968 375.368 200.331 374.856 201.056C374.387 201.781 374.152 203.253 374.152 205.472V236.832C374.152 238.496 374.323 239.733 374.664 240.544C375.005 241.355 375.667 241.888 376.648 242.144C377.629 242.4 379.08 242.549 381 242.592V244C379.677 243.957 377.971 243.915 375.88 243.872C373.789 243.829 371.592 243.808 369.288 243.808C367.453 243.808 365.661 243.829 363.912 243.872C362.163 243.915 360.584 243.957 359.176 244V242.72C360.541 242.635 361.565 242.464 362.248 242.208C362.931 241.952 363.379 241.44 363.592 240.672C363.848 239.904 363.976 238.752 363.976 237.216V205.472C363.976 203.893 363.848 202.741 363.592 202.016C363.379 201.248 362.909 200.736 362.184 200.48C361.501 200.181 360.499 200.011 359.176 199.968V198.688ZM420.014 198.688V199.968C418.648 200.011 417.603 200.181 416.878 200.48C416.195 200.736 415.747 201.248 415.534 202.016C415.32 202.741 415.214 203.893 415.214 205.472V237.216C415.214 238.752 415.32 239.904 415.534 240.672C415.79 241.44 416.259 241.952 416.942 242.208C417.624 242.464 418.648 242.635 420.014 242.72V244C418.862 243.915 417.411 243.872 415.662 243.872C413.912 243.829 412.142 243.808 410.35 243.808C408.259 243.808 406.318 243.829 404.526 243.872C402.776 243.872 401.347 243.915 400.238 244V242.72C401.603 242.635 402.627 242.464 403.31 242.208C403.992 241.952 404.44 241.44 404.654 240.672C404.91 239.904 405.038 238.752 405.038 237.216V205.472C405.038 203.893 404.91 202.741 404.654 202.016C404.44 201.248 403.971 200.736 403.246 200.48C402.563 200.181 401.56 200.011 400.238 199.968V198.688C401.347 198.731 402.776 198.773 404.526 198.816C406.318 198.859 408.259 198.88 410.35 198.88C412.142 198.88 413.912 198.859 415.662 198.816C417.411 198.773 418.862 198.731 420.014 198.688Z" fill="black"/>
<g style="mix-blend-mode:multiply">
<path d="M268.304 289.688C269.371 289.731 270.736 289.773 272.4 289.816C274.064 289.859 275.728 289.88 277.392 289.88C279.483 289.88 281.467 289.859 283.344 289.816C285.221 289.773 286.544 289.752 287.312 289.752C293.029 289.752 297.275 290.925 300.048 293.272C302.864 295.619 304.272 298.648 304.272 302.36C304.272 303.896 303.995 305.517 303.44 307.224C302.885 308.888 301.925 310.445 300.56 311.896C299.195 313.304 297.317 314.456 294.928 315.352C292.581 316.248 289.573 316.696 285.904 316.696H279.504V315.416H285.264C287.952 315.416 290 314.84 291.408 313.688C292.859 312.536 293.819 311.021 294.288 309.144C294.8 307.267 295.056 305.24 295.056 303.064C295.056 299.011 294.395 295.981 293.072 293.976C291.749 291.971 289.467 290.968 286.224 290.968C284.475 290.968 283.323 291.331 282.768 292.056C282.256 292.781 282 294.253 282 296.472V327.96C282 329.581 282.171 330.797 282.512 331.608C282.853 332.419 283.515 332.952 284.496 333.208C285.477 333.464 286.885 333.613 288.72 333.656V335C287.483 334.915 285.883 334.872 283.92 334.872C281.957 334.829 279.931 334.808 277.84 334.808C276.048 334.808 274.32 334.829 272.656 334.872C270.992 334.872 269.541 334.915 268.304 335V333.72C269.712 333.635 270.757 333.464 271.44 333.208C272.165 332.952 272.635 332.44 272.848 331.672C273.104 330.904 273.232 329.752 273.232 328.216V296.472C273.232 294.893 273.104 293.741 272.848 293.016C272.635 292.248 272.165 291.736 271.44 291.48C270.757 291.181 269.712 291.011 268.304 290.968V289.688ZM325.466 289.496L341.018 329.624C341.658 331.16 342.341 332.227 343.066 332.824C343.834 333.379 344.538 333.677 345.178 333.72V335C344.069 334.915 342.725 334.872 341.146 334.872C339.61 334.829 338.031 334.808 336.41 334.808C334.533 334.808 332.783 334.829 331.162 334.872C329.541 334.872 328.218 334.915 327.194 335V333.72C329.37 333.635 330.757 333.272 331.354 332.632C331.951 331.949 331.823 330.52 330.97 328.344L319.706 297.944L320.858 296.536L310.618 323.096C309.807 325.229 309.317 326.979 309.146 328.344C308.975 329.709 309.082 330.776 309.466 331.544C309.85 332.312 310.49 332.867 311.386 333.208C312.282 333.507 313.391 333.677 314.714 333.72V335C313.349 334.915 312.026 334.872 310.746 334.872C309.466 334.829 308.186 334.808 306.906 334.808C305.967 334.808 305.071 334.829 304.218 334.872C303.407 334.872 302.682 334.915 302.042 335V333.72C302.981 333.507 303.898 332.952 304.794 332.056C305.733 331.16 306.629 329.603 307.482 327.384L322.138 289.496C322.65 289.539 323.205 289.56 323.802 289.56C324.399 289.56 324.954 289.539 325.466 289.496ZM331.034 316.568V317.848H311.962L312.602 316.568H331.034ZM362.722 288.92C365.111 288.92 366.946 289.176 368.226 289.688C369.506 290.2 370.615 290.755 371.554 291.352C372.066 291.651 372.471 291.885 372.77 292.056C373.111 292.184 373.431 292.248 373.73 292.248C374.156 292.248 374.455 292.013 374.626 291.544C374.839 291.075 375.01 290.371 375.138 289.432H376.61C376.567 290.243 376.503 291.181 376.418 292.248C376.375 293.315 376.332 294.744 376.29 296.536C376.29 298.285 376.29 300.611 376.29 303.512H374.818C374.69 301.336 374.199 299.245 373.346 297.24C372.535 295.235 371.362 293.592 369.826 292.312C368.332 290.989 366.412 290.328 364.066 290.328C361.975 290.328 360.226 290.947 358.818 292.184C357.452 293.421 356.77 295.085 356.77 297.176C356.77 298.968 357.218 300.483 358.114 301.72C359.01 302.915 360.268 304.088 361.89 305.24C363.554 306.349 365.516 307.629 367.778 309.08C369.868 310.445 371.746 311.811 373.41 313.176C375.074 314.499 376.375 315.971 377.314 317.592C378.295 319.213 378.786 321.197 378.786 323.544C378.786 326.317 378.103 328.621 376.738 330.456C375.372 332.291 373.538 333.656 371.234 334.552C368.93 335.448 366.412 335.896 363.682 335.896C361.164 335.896 359.159 335.64 357.666 335.128C356.215 334.616 354.956 334.083 353.89 333.528C352.951 332.931 352.226 332.632 351.714 332.632C351.287 332.632 350.967 332.867 350.754 333.336C350.583 333.805 350.434 334.509 350.306 335.448H348.834C348.919 334.467 348.962 333.315 348.962 331.992C349.004 330.669 349.026 328.963 349.026 326.872C349.068 324.739 349.09 322.051 349.09 318.808H350.562C350.732 321.539 351.202 324.099 351.97 326.488C352.78 328.835 353.996 330.733 355.618 332.184C357.282 333.635 359.479 334.36 362.21 334.36C363.703 334.36 365.047 334.104 366.242 333.592C367.479 333.037 368.46 332.205 369.186 331.096C369.911 329.944 370.274 328.493 370.274 326.744C370.274 324.995 369.868 323.459 369.058 322.136C368.247 320.813 367.116 319.576 365.666 318.424C364.215 317.272 362.508 316.099 360.546 314.904C358.54 313.624 356.663 312.323 354.914 311C353.164 309.677 351.756 308.184 350.69 306.52C349.666 304.813 349.154 302.765 349.154 300.376C349.154 297.731 349.794 295.576 351.074 293.912C352.354 292.205 354.018 290.947 356.066 290.136C358.156 289.325 360.375 288.92 362.722 288.92ZM390.957 284.952C392.152 284.952 393.197 285.421 394.093 286.36C394.989 287.256 395.437 288.579 395.437 290.328C395.437 292.12 395.245 294.189 394.861 296.536C394.477 298.883 394.029 301.464 393.517 304.28C393.048 307.053 392.6 309.976 392.173 313.048C391.789 316.12 391.576 319.256 391.533 322.456H390.381C390.296 319.256 390.061 316.12 389.677 313.048C389.293 309.976 388.845 307.053 388.333 304.28C387.821 301.464 387.373 298.883 386.989 296.536C386.648 294.189 386.477 292.12 386.477 290.328C386.477 288.579 386.904 287.256 387.757 286.36C388.61 285.421 389.677 284.952 390.957 284.952ZM390.957 326.552C392.408 326.552 393.602 326.979 394.541 327.832C395.48 328.685 395.949 329.816 395.949 331.224C395.949 332.632 395.48 333.763 394.541 334.616C393.602 335.469 392.408 335.896 390.957 335.896C389.464 335.896 388.248 335.469 387.309 334.616C386.413 333.763 385.965 332.632 385.965 331.224C385.965 329.816 386.413 328.685 387.309 327.832C388.248 326.979 389.464 326.552 390.957 326.552Z" fill="black"/>
</g>
<path fill-rule="evenodd" clip-rule="evenodd" d="M298.39 236.325C298.478 236.747 298.208 237.161 297.786 237.25C294.929 237.85 292.661 238.566 291.126 239.342C290.358 239.731 289.812 240.115 289.469 240.475C289.128 240.832 289.031 241.115 289.031 241.328C289.031 241.534 289.121 241.802 289.43 242.139C289.742 242.481 290.241 242.848 290.948 243.222C292.362 243.97 294.459 244.667 297.116 245.261C302.417 246.447 309.779 247.188 317.938 247.188C326.096 247.188 333.458 246.447 338.759 245.261C341.416 244.667 343.513 243.97 344.927 243.222C345.634 242.848 346.133 242.481 346.445 242.139C346.754 241.802 346.844 241.534 346.844 241.328C346.844 241.115 346.747 240.832 346.406 240.475C346.063 240.115 345.517 239.731 344.749 239.342C343.214 238.566 340.946 237.85 338.089 237.25C337.667 237.161 337.397 236.747 337.485 236.325C337.574 235.902 337.988 235.632 338.411 235.721C341.325 236.332 343.744 237.083 345.454 237.948C346.308 238.379 347.024 238.859 347.537 239.397C348.053 239.938 348.406 240.587 348.406 241.328C348.406 242.04 348.08 242.667 347.598 243.194C347.12 243.717 346.452 244.183 345.657 244.604C344.066 245.445 341.816 246.179 339.1 246.786C333.657 248.004 326.175 248.75 317.938 248.75C309.7 248.75 302.218 248.004 296.775 246.786C294.059 246.179 291.809 245.445 290.218 244.604C289.423 244.183 288.755 243.717 288.277 243.194C287.795 242.667 287.469 242.04 287.469 241.328C287.469 240.587 287.822 239.938 288.338 239.397C288.851 238.859 289.567 238.379 290.421 237.948C292.131 237.083 294.55 236.332 297.464 235.721C297.887 235.632 298.301 235.902 298.39 236.325Z" fill="#AC7349"/>
<path fill-rule="evenodd" clip-rule="evenodd" d="M340.992 230.56C340.775 230.205 340.709 229.777 340.808 229.373C341.036 228.449 341.192 227.489 341.282 226.509C341.324 226.048 341.569 225.63 341.949 225.367C342.329 225.104 342.807 225.022 343.253 225.145C343.648 225.254 344.066 225.312 344.5 225.312C347.089 225.312 349.188 223.214 349.188 220.625C349.188 218.036 347.089 215.938 344.5 215.938C344.093 215.938 343.7 215.989 343.327 216.085C342.859 216.205 342.362 216.103 341.98 215.807C341.598 215.511 341.375 215.055 341.375 214.572V211.38C341.375 210.616 341.926 209.965 342.679 209.839C343.272 209.739 343.881 209.688 344.5 209.688C350.541 209.688 355.438 214.584 355.438 220.625C355.438 226.666 350.541 231.562 344.5 231.562C343.629 231.562 342.78 231.46 341.964 231.267C341.559 231.17 341.209 230.916 340.992 230.56ZM344.387 226.874C343.851 226.864 343.332 226.788 342.838 226.652C342.79 227.176 342.724 227.698 342.639 228.214C342.571 228.624 342.492 229.03 342.4 229.432C342.376 229.537 342.351 229.642 342.325 229.746C342.828 229.866 343.346 229.945 343.877 229.98C344.083 229.993 344.291 230 344.5 230C349.678 230 353.875 225.803 353.875 220.625C353.875 215.447 349.678 211.25 344.5 211.25C343.968 211.25 343.446 211.294 342.938 211.38V214.572C343.437 214.443 343.961 214.375 344.5 214.375C347.952 214.375 350.75 217.173 350.75 220.625C350.75 224.077 347.952 226.875 344.5 226.875C344.462 226.875 344.424 226.875 344.387 226.874Z" fill="#AC7349"/>
<path fill-rule="evenodd" clip-rule="evenodd" d="M293.719 204.219C294.15 204.219 294.5 204.569 294.5 205V224.538C294.5 229.991 296.386 235.27 301.111 237.777C304.975 239.826 310.541 241.719 317.938 241.719C325.334 241.719 330.9 239.826 334.764 237.777C339.489 235.27 341.375 229.991 341.375 224.538V205C341.375 204.569 341.725 204.219 342.156 204.219C342.588 204.219 342.938 204.569 342.938 205V224.538C342.938 230.273 340.95 236.264 335.496 239.157C331.428 241.315 325.612 243.281 317.938 243.281C310.263 243.281 304.447 241.315 300.379 239.157C294.925 236.264 292.938 230.273 292.938 224.538V205C292.938 204.569 293.287 204.219 293.719 204.219Z" fill="#AC7349"/>
<path fill-rule="evenodd" clip-rule="evenodd" d="M296.062 208.718V224.868C296.062 229.064 297.451 233.249 300.991 235.502C304.579 237.784 310.174 240.156 317.938 240.156C325.701 240.156 331.296 237.784 334.884 235.502C338.424 233.249 339.812 229.064 339.812 224.868V208.718C336.427 209.742 327.909 210.469 317.938 210.469C307.966 210.469 299.448 209.742 296.062 208.718Z" fill="#75370A"/>
<path d="M334.884 235.502C338.424 233.249 339.812 229.064 339.812 224.868V208.718C337.987 209.27 334.67 209.736 330.438 210.048V237.799C332.164 237.09 333.644 236.291 334.884 235.502Z" fill="#572908"/>
<path d="M300.991 235.502C297.451 233.249 296.062 229.064 296.062 224.868V208.718C297.536 209.164 299.98 209.553 303.094 209.851V236.713C302.329 236.315 301.628 235.907 300.991 235.502Z" fill="#8E4917"/>
<path fill-rule="evenodd" clip-rule="evenodd" d="M334.691 208.095C330.373 208.599 324.45 208.906 317.938 208.906C311.425 208.906 305.502 208.599 301.184 208.095C299.035 207.844 297.227 207.539 295.926 207.18C295.288 207.004 294.682 206.791 294.202 206.518C293.963 206.381 293.68 206.188 293.442 205.915C293.196 205.631 292.938 205.188 292.938 204.609C292.938 204.031 293.196 203.587 293.442 203.304C293.68 203.03 293.963 202.837 294.202 202.701C294.682 202.427 295.288 202.215 295.926 202.039C297.227 201.68 299.035 201.375 301.184 201.124C305.502 200.62 311.425 200.312 317.938 200.312C324.45 200.312 330.373 200.62 334.691 201.124C336.84 201.375 338.648 201.68 339.949 202.039C340.587 202.215 341.193 202.427 341.673 202.701C341.912 202.837 342.195 203.03 342.433 203.304C342.679 203.587 342.938 204.031 342.938 204.609C342.938 205.188 342.679 205.631 342.433 205.915C342.195 206.188 341.912 206.381 341.673 206.518C341.193 206.791 340.587 207.004 339.949 207.18C338.648 207.539 336.84 207.844 334.691 208.095ZM317.938 207.344C330.882 207.344 341.375 206.12 341.375 204.609C341.375 203.099 330.882 201.875 317.938 201.875C304.993 201.875 294.5 203.099 294.5 204.609C294.5 206.12 304.993 207.344 317.938 207.344Z" fill="#AC7349"/>
<path fill-rule="evenodd" clip-rule="evenodd" d="M299.188 211.25C299.619 211.25 299.969 211.6 299.969 212.031V216.719C299.969 217.15 299.619 217.5 299.188 217.5C298.756 217.5 298.406 217.15 298.406 216.719V212.031C298.406 211.6 298.756 211.25 299.188 211.25Z" fill="white"/>
<path d="M339.812 204.609C339.812 205.688 330.019 206.562 317.938 206.562C305.856 206.562 296.062 205.688 296.062 204.609C296.062 203.531 305.856 202.656 317.938 202.656C330.019 202.656 339.812 203.531 339.812 204.609Z" fill="#75370A"/>
<path d="M331.219 231.065C331.219 231.693 330.71 232.202 330.082 232.202C329.455 232.202 328.946 231.693 328.946 231.065C328.946 230.438 329.455 229.929 330.082 229.929C330.71 229.929 331.219 230.438 331.219 231.065Z" fill="#572908"/>
<path d="M327.81 228.793C327.81 229.42 327.301 229.929 326.673 229.929C326.046 229.929 325.537 229.42 325.537 228.793C325.537 228.165 326.046 227.656 326.673 227.656C327.301 227.656 327.81 228.165 327.81 228.793Z" fill="#572908"/>
<path d="M325.679 225.668C325.679 226.295 325.17 226.804 324.543 226.804C323.915 226.804 323.406 226.295 323.406 225.668C323.406 225.04 323.915 224.531 324.543 224.531C325.17 224.531 325.679 225.04 325.679 225.668Z" fill="#572908"/>
<path d="M322.696 229.432C322.696 229.903 322.315 230.284 321.844 230.284C321.373 230.284 320.992 229.903 320.992 229.432C320.992 228.961 321.373 228.58 321.844 228.58C322.315 228.58 322.696 228.961 322.696 229.432Z" fill="#572908"/>
<path d="M321.205 226.165C321.205 226.635 320.823 227.017 320.352 227.017C319.882 227.017 319.5 226.635 319.5 226.165C319.5 225.694 319.882 225.312 320.352 225.312C320.823 225.312 321.205 225.694 321.205 226.165Z" fill="#572908"/>
<path d="M318.861 230.852C318.861 231.323 318.479 231.705 318.009 231.705C317.538 231.705 317.156 231.323 317.156 230.852C317.156 230.382 317.538 230 318.009 230C318.479 230 318.861 230.382 318.861 230.852Z" fill="#572908"/>
<path d="M318.861 236.321C318.861 236.792 318.479 237.173 318.009 237.173C317.538 237.173 317.156 236.792 317.156 236.321C317.156 235.85 317.538 235.469 318.009 235.469C318.479 235.469 318.861 235.85 318.861 236.321Z" fill="#572908"/>
<path d="M323.264 236.747C323.264 237.375 322.755 237.884 322.128 237.884C321.5 237.884 320.991 237.375 320.991 236.747C320.991 236.12 321.5 235.611 322.128 235.611C322.755 235.611 323.264 236.12 323.264 236.747Z" fill="#572908"/>
<path d="M321.205 232.841C321.205 233.312 320.823 233.693 320.352 233.693C319.882 233.693 319.5 233.312 319.5 232.841C319.5 232.37 319.882 231.989 320.352 231.989C320.823 231.989 321.205 232.37 321.205 232.841Z" fill="#572908"/>
<path d="M326.673 233.054C326.673 233.838 326.037 234.474 325.253 234.474C324.468 234.474 323.832 233.838 323.832 233.054C323.832 232.269 324.468 231.633 325.253 231.633C326.037 231.633 326.673 232.269 326.673 233.054Z" fill="#572908"/>
<path d="M331.716 225.17C331.716 225.955 331.08 226.591 330.295 226.591C329.511 226.591 328.875 225.955 328.875 225.17C328.875 224.386 329.511 223.75 330.295 223.75C331.08 223.75 331.716 224.386 331.716 225.17Z" fill="#572908"/>
<path d="M330.082 235.043C330.082 235.67 329.574 236.179 328.946 236.179C328.318 236.179 327.81 235.67 327.81 235.043C327.81 234.415 328.318 233.906 328.946 233.906C329.574 233.906 330.082 234.415 330.082 235.043Z" fill="#572908"/>
<g opacity="0.7">
<g filter="url(#filter1_iii_16_8)">
<path d="M138.898 442.941C144.709 435.041 155.03 428.723 159.974 432.36C164.918 435.997 167.401 442.373 161.59 450.274C155.778 458.174 143.871 464.606 138.928 460.969C133.984 457.332 133.086 450.842 138.898 442.941Z" fill="#8D3F01"/>
</g>
<g filter="url(#filter2_di_16_8)">
<path d="M148.664 453.218C143.717 459.392 139.289 461.23 139.289 461.23C139.289 461.23 142.847 456.805 144.832 452.873C146.924 448.732 145.612 445.305 148.453 441.637C154.32 434.064 160.495 433.226 160.495 433.226C160.495 433.226 154.286 439.627 152.14 443.674C149.782 448.122 151.812 449.289 148.664 453.218Z" fill="#3F1C04"/>
</g>
<path d="M149.544 444.462C154.421 442.306 160.222 442.152 164.899 442.511C164.899 446.17 149.123 463.705 141.075 461.876C140.892 461.615 140.735 461.341 140.608 461.053C138.126 455.44 140.573 448.428 149.544 444.462Z" fill="black" fill-opacity="0.2"/>
<ellipse cx="152.582" cy="487.852" rx="22.6044" ry="2.14835" fill="#B16E31"/>
<g filter="url(#filter3_iii_16_8)">
<path d="M151.322 447.866C160.293 443.9 172.389 443.549 174.871 449.162C177.352 454.776 176.337 461.543 167.367 465.509C158.397 469.474 144.868 469.137 142.387 463.523C139.905 457.91 142.352 451.832 151.322 447.866Z" fill="#8D3F01"/>
</g>
<g filter="url(#filter4_di_16_8)">
<path d="M154.687 461.638C147.326 464.536 142.571 463.929 142.571 463.929C142.571 463.929 147.858 461.858 151.535 459.434C155.408 456.88 155.973 453.255 160.262 451.484C169.117 447.829 174.892 450.173 174.892 450.173C174.892 450.173 166.323 452.64 162.449 455.085C158.191 457.772 159.372 459.794 154.687 461.638Z" fill="#3F1C04"/>
</g>
</g>
<g opacity="0.7">
<g filter="url(#filter5_iii_16_8)">
<path d="M411.898 403.941C417.709 396.041 428.03 389.723 432.974 393.36C437.918 396.997 440.401 403.373 434.59 411.274C428.778 419.174 416.871 425.606 411.928 421.969C406.984 418.332 406.086 411.842 411.898 403.941Z" fill="#8D3F01"/>
</g>
<g filter="url(#filter6_di_16_8)">
<path d="M421.664 414.218C416.717 420.392 412.289 422.23 412.289 422.23C412.289 422.23 415.847 417.805 417.832 413.873C419.924 409.732 418.612 406.305 421.453 402.637C427.32 395.064 433.495 394.226 433.495 394.226C433.495 394.226 427.286 400.627 425.14 404.674C422.782 409.122 424.812 410.289 421.664 414.218Z" fill="#3F1C04"/>
</g>
<path d="M422.544 405.462C427.421 403.306 433.222 403.152 437.899 403.511C437.899 407.17 422.123 424.705 414.075 422.876C413.892 422.615 413.735 422.341 413.608 422.053C411.126 416.44 413.573 409.428 422.544 405.462Z" fill="black" fill-opacity="0.2"/>
<ellipse cx="425.582" cy="448.852" rx="22.6044" ry="2.14835" fill="#B16E31"/>
<g filter="url(#filter7_iii_16_8)">
<path d="M424.322 408.866C433.293 404.9 445.389 404.549 447.871 410.162C450.352 415.776 449.337 422.543 440.367 426.509C431.397 430.474 417.868 430.137 415.387 424.523C412.905 418.91 415.352 412.832 424.322 408.866Z" fill="#8D3F01"/>
</g>
<g filter="url(#filter8_di_16_8)">
<path d="M427.687 422.638C420.326 425.536 415.571 424.929 415.571 424.929C415.571 424.929 420.858 422.858 424.535 420.434C428.408 417.88 428.973 414.255 433.262 412.484C442.117 408.829 447.892 411.173 447.892 411.173C447.892 411.173 439.323 413.64 435.449 416.085C431.191 418.772 432.372 420.794 427.687 422.638Z" fill="#3F1C04"/>
</g>
</g>
<g opacity="0.7">
<g filter="url(#filter9_iii_16_8)">
<path d="M488.898 95.9414C494.71 88.0411 505.031 81.7226 509.974 85.3596C514.918 88.9966 517.402 95.3733 511.59 103.273C505.778 111.174 493.871 117.606 488.928 113.969C483.984 110.332 483.086 103.842 488.898 95.9414Z" fill="#8D3F01"/>
</g>
<g filter="url(#filter10_di_16_8)">
<path d="M498.664 106.218C493.717 112.392 489.289 114.23 489.289 114.23C489.289 114.23 492.847 109.805 494.832 105.873C496.924 101.732 495.612 98.3049 498.453 94.6368C504.32 87.0635 510.495 86.2259 510.495 86.2259C510.495 86.2259 504.286 92.6267 502.14 96.6741C499.782 101.122 501.812 102.289 498.664 106.218Z" fill="#3F1C04"/>
</g>
<path d="M499.544 97.4621C504.421 95.3061 510.222 95.1524 514.899 95.5106C514.899 99.1698 499.123 116.705 491.075 114.876C490.892 114.615 490.735 114.341 490.608 114.053C488.126 108.44 490.574 101.428 499.544 97.4621Z" fill="black" fill-opacity="0.2"/>
<ellipse cx="502.582" cy="140.852" rx="22.6044" ry="2.14835" fill="#B16E31"/>
<g filter="url(#filter11_iii_16_8)">
<path d="M501.322 100.866C510.293 96.9004 522.389 96.5487 524.871 102.162C527.352 107.776 526.337 114.543 517.367 118.509C508.397 122.474 494.868 122.137 492.387 116.523C489.905 110.91 492.352 104.832 501.322 100.866Z" fill="#8D3F01"/>
</g>
<g filter="url(#filter12_di_16_8)">
<path d="M504.687 114.638C497.326 117.536 492.571 116.929 492.571 116.929C492.571 116.929 497.858 114.858 501.535 112.434C505.408 109.88 505.973 106.255 510.262 104.484C519.117 100.83 524.892 103.173 524.892 103.173C524.892 103.173 516.323 105.64 512.449 108.085C508.191 110.772 509.372 112.794 504.687 114.638Z" fill="#3F1C04"/>
</g>
</g>
<g opacity="0.7">
<g filter="url(#filter13_iii_16_8)">
<path d="M164.898 81.9414C170.709 74.0411 181.03 67.7226 185.974 71.3596C190.918 74.9966 193.401 81.3733 187.59 89.2735C181.778 97.1737 169.871 103.606 164.928 99.9689C159.984 96.3319 159.086 89.8416 164.898 81.9414Z" fill="#8D3F01"/>
</g>
<g filter="url(#filter14_di_16_8)">
<path d="M174.664 92.2183C169.717 98.3923 165.289 100.23 165.289 100.23C165.289 100.23 168.847 95.8045 170.832 91.8733C172.924 87.7315 171.612 84.3049 174.453 80.6368C180.32 73.0635 186.495 72.2259 186.495 72.2259C186.495 72.2259 180.286 78.6267 178.14 82.6741C175.782 87.1224 177.812 88.2891 174.664 92.2183Z" fill="#3F1C04"/>
</g>
<path d="M175.544 83.4621C180.421 81.3061 186.222 81.1524 190.899 81.5106C190.899 85.1698 175.123 102.705 167.075 100.876C166.892 100.615 166.735 100.341 166.608 100.053C164.126 94.4398 166.573 87.4278 175.544 83.4621Z" fill="black" fill-opacity="0.2"/>
<ellipse cx="178.582" cy="126.852" rx="22.6044" ry="2.14835" fill="#B16E31"/>
<g filter="url(#filter15_iii_16_8)">
<path d="M177.322 86.8661C186.293 82.9004 198.389 82.5487 200.871 88.1622C203.352 93.7756 202.337 100.543 193.367 104.509C184.397 108.474 170.868 108.137 168.387 102.523C165.905 96.9096 168.352 90.8317 177.322 86.8661Z" fill="#8D3F01"/>
</g>
<g filter="url(#filter16_di_16_8)">
<path d="M180.687 100.638C173.326 103.536 168.571 102.929 168.571 102.929C168.571 102.929 173.858 100.858 177.535 98.4341C181.408 95.8802 181.973 92.2547 186.262 90.4844C195.117 86.8295 200.892 89.1729 200.892 89.1729C200.892 89.1729 192.323 91.64 188.449 94.0851C184.191 96.7723 185.372 98.7939 180.687 100.638Z" fill="#3F1C04"/>
</g>
<g opacity="0.7">
<g filter="url(#filter17_iii_16_8)">
<path d="M237.898 301.941C243.709 294.041 254.03 287.723 258.974 291.36C263.918 294.997 266.401 301.373 260.59 309.274C254.778 317.174 242.871 323.606 237.928 319.969C232.984 316.332 232.086 309.842 237.898 301.941Z" fill="#8D3F01"/>
</g>
<g filter="url(#filter18_di_16_8)">
<path d="M247.664 312.218C242.717 318.392 238.289 320.23 238.289 320.23C238.289 320.23 241.847 315.805 243.832 311.873C245.924 307.732 244.612 304.305 247.453 300.637C253.32 293.064 259.495 292.226 259.495 292.226C259.495 292.226 253.286 298.627 251.14 302.674C248.782 307.122 250.812 308.289 247.664 312.218Z" fill="#3F1C04"/>
</g>
<path d="M248.544 303.462C253.421 301.306 259.222 301.152 263.899 301.511C263.899 305.17 248.123 322.705 240.075 320.876C239.892 320.615 239.735 320.341 239.608 320.053C237.126 314.44 239.573 307.428 248.544 303.462Z" fill="black" fill-opacity="0.2"/>
<ellipse cx="251.582" cy="346.852" rx="22.6044" ry="2.14835" fill="#B16E31"/>
<g filter="url(#filter19_iii_16_8)">
<path d="M250.322 306.866C259.293 302.9 271.389 302.549 273.871 308.162C276.352 313.776 275.337 320.543 266.367 324.509C257.397 328.474 243.868 328.137 241.387 322.523C238.905 316.91 241.352 310.832 250.322 306.866Z" fill="#8D3F01"/>
</g>
<g filter="url(#filter20_di_16_8)">
<path d="M253.687 320.638C246.326 323.536 241.571 322.929 241.571 322.929C241.571 322.929 246.858 320.858 250.535 318.434C254.408 315.88 254.973 312.255 259.262 310.484C268.117 306.829 273.892 309.173 273.892 309.173C273.892 309.173 265.323 311.64 261.449 314.085C257.191 316.772 258.372 318.794 253.687 320.638Z" fill="#3F1C04"/>
</g>
</g>
</g>
</g>
<defs>
<filter id="filter0_d_16_8" x="-4" y="0" width="595" height="595" filterUnits="userSpaceOnUse" color-interpolation-filters="sRGB">
<feFlood flood-opacity="0" result="BackgroundImageFix"/>
<feColorMatrix in="SourceAlpha" type="matrix" values="0 0 0 0 0 0 0 0 0 0 0 0 0 0 0 0 0 0 127 0" result="hardAlpha"/>
<feOffset dy="4"/>
<feGaussianBlur stdDeviation="2"/>
<feComposite in2="hardAlpha" operator="out"/>
<feColorMatrix type="matrix" values="0 0 0 0 0 0 0 0 0 0 0 0 0 0 0 0 0 0 0.25 0"/>
<feBlend mode="normal" in2="BackgroundImageFix" result="effect1_dropShadow_16_8"/>
<feBlend mode="normal" in="SourceGraphic" in2="effect1_dropShadow_16_8" result="shape"/>
</filter>
<filter id="filter1_iii_16_8" x="134.872" y="431.305" width="30.0854" height="30.7067" filterUnits="userSpaceOnUse" color-interpolation-filters="sRGB">
<feFlood flood-opacity="0" result="BackgroundImageFix"/>
<feBlend mode="normal" in="SourceGraphic" in2="BackgroundImageFix" result="shape"/>
<feColorMatrix in="SourceAlpha" type="matrix" values="0 0 0 0 0 0 0 0 0 0 0 0 0 0 0 0 0 0 127 0" result="hardAlpha"/>
<feOffset dx="-2.05494" dy="-1.12088"/>
<feComposite in2="hardAlpha" operator="arithmetic" k2="-1" k3="1"/>
<feColorMatrix type="matrix" values="0 0 0 0 0.380392 0 0 0 0 0.172549 0 0 0 0 0.0156863 0 0 0 1 0"/>
<feBlend mode="normal" in2="shape" result="effect1_innerShadow_16_8"/>
<feColorMatrix in="SourceAlpha" type="matrix" values="0 0 0 0 0 0 0 0 0 0 0 0 0 0 0 0 0 0 127 0" result="hardAlpha"/>
<feOffset dx="-6.72527" dy="-2.8022"/>
<feComposite in2="hardAlpha" operator="arithmetic" k2="-1" k3="1"/>
<feColorMatrix type="matrix" values="0 0 0 0 0.384314 0 0 0 0 0.160784 0 0 0 0 0.027451 0 0 0 0.44 0"/>
<feBlend mode="normal" in2="effect1_innerShadow_16_8" result="effect2_innerShadow_16_8"/>
<feColorMatrix in="SourceAlpha" type="matrix" values="0 0 0 0 0 0 0 0 0 0 0 0 0 0 0 0 0 0 127 0" result="hardAlpha"/>
<feOffset dx="0.56044" dy="0.373626"/>
<feComposite in2="hardAlpha" operator="arithmetic" k2="-1" k3="1"/>
<feColorMatrix type="matrix" values="0 0 0 0 0.8 0 0 0 0 0.470588 0 0 0 0 0.262745 0 0 0 1 0"/>
<feBlend mode="normal" in2="effect2_innerShadow_16_8" result="effect3_innerShadow_16_8"/>
</filter>
<filter id="filter2_di_16_8" x="138.915" y="433.226" width="21.5801" height="28.0036" filterUnits="userSpaceOnUse" color-interpolation-filters="sRGB">
<feFlood flood-opacity="0" result="BackgroundImageFix"/>
<feColorMatrix in="SourceAlpha" type="matrix" values="0 0 0 0 0 0 0 0 0 0 0 0 0 0 0 0 0 0 127 0" result="hardAlpha"/>
<feOffset dx="-0.373626"/>
<feComposite in2="hardAlpha" operator="out"/>
<feColorMatrix type="matrix" values="0 0 0 0 0.8 0 0 0 0 0.470588 0 0 0 0 0.262745 0 0 0 1 0"/>
<feBlend mode="normal" in2="BackgroundImageFix" result="effect1_dropShadow_16_8"/>
<feBlend mode="normal" in="SourceGraphic" in2="effect1_dropShadow_16_8" result="shape"/>
<feColorMatrix in="SourceAlpha" type="matrix" values="0 0 0 0 0 0 0 0 0 0 0 0 0 0 0 0 0 0 127 0" result="hardAlpha"/>
<feOffset dx="-0.747253"/>
<feComposite in2="hardAlpha" operator="arithmetic" k2="-1" k3="1"/>
<feColorMatrix type="matrix" values="0 0 0 0 0.8 0 0 0 0 0.470588 0 0 0 0 0.262745 0 0 0 1 0"/>
<feBlend mode="normal" in2="shape" result="effect2_innerShadow_16_8"/>
</filter>
<filter id="filter3_iii_16_8" x="141.473" y="444.913" width="34.5663" height="23.2479" filterUnits="userSpaceOnUse" color-interpolation-filters="sRGB">
<feFlood flood-opacity="0" result="BackgroundImageFix"/>
<feBlend mode="normal" in="SourceGraphic" in2="BackgroundImageFix" result="shape"/>
<feColorMatrix in="SourceAlpha" type="matrix" values="0 0 0 0 0 0 0 0 0 0 0 0 0 0 0 0 0 0 127 0" result="hardAlpha"/>
<feOffset dx="-2.05494" dy="-0.747253"/>
<feComposite in2="hardAlpha" operator="arithmetic" k2="-1" k3="1"/>
<feColorMatrix type="matrix" values="0 0 0 0 0.380392 0 0 0 0 0.172549 0 0 0 0 0.0156863 0 0 0 1 0"/>
<feBlend mode="normal" in2="shape" result="effect1_innerShadow_16_8"/>
<feColorMatrix in="SourceAlpha" type="matrix" values="0 0 0 0 0 0 0 0 0 0 0 0 0 0 0 0 0 0 127 0" result="hardAlpha"/>
<feOffset dx="-6.72527" dy="-2.8022"/>
<feComposite in2="hardAlpha" operator="arithmetic" k2="-1" k3="1"/>
<feColorMatrix type="matrix" values="0 0 0 0 0.384314 0 0 0 0 0.160784 0 0 0 0 0.027451 0 0 0 0.44 0"/>
<feBlend mode="normal" in2="effect1_innerShadow_16_8" result="effect2_innerShadow_16_8"/>
<feColorMatrix in="SourceAlpha" type="matrix" values="0 0 0 0 0 0 0 0 0 0 0 0 0 0 0 0 0 0 127 0" result="hardAlpha"/>
<feOffset dx="0.373626"/>
<feComposite in2="hardAlpha" operator="arithmetic" k2="-1" k3="1"/>
<feColorMatrix type="matrix" values="0 0 0 0 0.8 0 0 0 0 0.470588 0 0 0 0 0.262745 0 0 0 1 0"/>
<feBlend mode="normal" in2="effect2_innerShadow_16_8" result="effect3_innerShadow_16_8"/>
</filter>
<filter id="filter4_di_16_8" x="142.197" y="449.433" width="32.6953" height="14.5487" filterUnits="userSpaceOnUse" color-interpolation-filters="sRGB">
<feFlood flood-opacity="0" result="BackgroundImageFix"/>
<feColorMatrix in="SourceAlpha" type="matrix" values="0 0 0 0 0 0 0 0 0 0 0 0 0 0 0 0 0 0 127 0" result="hardAlpha"/>
<feOffset dx="-0.373626"/>
<feComposite in2="hardAlpha" operator="out"/>
<feColorMatrix type="matrix" values="0 0 0 0 0.8 0 0 0 0 0.470588 0 0 0 0 0.262745 0 0 0 1 0"/>
<feBlend mode="normal" in2="BackgroundImageFix" result="effect1_dropShadow_16_8"/>
<feBlend mode="normal" in="SourceGraphic" in2="effect1_dropShadow_16_8" result="shape"/>
<feColorMatrix in="SourceAlpha" type="matrix" values="0 0 0 0 0 0 0 0 0 0 0 0 0 0 0 0 0 0 127 0" result="hardAlpha"/>
<feOffset dx="-0.747253"/>
<feComposite in2="hardAlpha" operator="arithmetic" k2="-1" k3="1"/>
<feColorMatrix type="matrix" values="0 0 0 0 0.8 0 0 0 0 0.470588 0 0 0 0 0.262745 0 0 0 1 0"/>
<feBlend mode="normal" in2="shape" result="effect2_innerShadow_16_8"/>
</filter>
<filter id="filter5_iii_16_8" x="407.872" y="392.305" width="30.0854" height="30.7067" filterUnits="userSpaceOnUse" color-interpolation-filters="sRGB">
<feFlood flood-opacity="0" result="BackgroundImageFix"/>
<feBlend mode="normal" in="SourceGraphic" in2="BackgroundImageFix" result="shape"/>
<feColorMatrix in="SourceAlpha" type="matrix" values="0 0 0 0 0 0 0 0 0 0 0 0 0 0 0 0 0 0 127 0" result="hardAlpha"/>
<feOffset dx="-2.05494" dy="-1.12088"/>
<feComposite in2="hardAlpha" operator="arithmetic" k2="-1" k3="1"/>
<feColorMatrix type="matrix" values="0 0 0 0 0.380392 0 0 0 0 0.172549 0 0 0 0 0.0156863 0 0 0 1 0"/>
<feBlend mode="normal" in2="shape" result="effect1_innerShadow_16_8"/>
<feColorMatrix in="SourceAlpha" type="matrix" values="0 0 0 0 0 0 0 0 0 0 0 0 0 0 0 0 0 0 127 0" result="hardAlpha"/>
<feOffset dx="-6.72527" dy="-2.8022"/>
<feComposite in2="hardAlpha" operator="arithmetic" k2="-1" k3="1"/>
<feColorMatrix type="matrix" values="0 0 0 0 0.384314 0 0 0 0 0.160784 0 0 0 0 0.027451 0 0 0 0.44 0"/>
<feBlend mode="normal" in2="effect1_innerShadow_16_8" result="effect2_innerShadow_16_8"/>
<feColorMatrix in="SourceAlpha" type="matrix" values="0 0 0 0 0 0 0 0 0 0 0 0 0 0 0 0 0 0 127 0" result="hardAlpha"/>
<feOffset dx="0.56044" dy="0.373626"/>
<feComposite in2="hardAlpha" operator="arithmetic" k2="-1" k3="1"/>
<feColorMatrix type="matrix" values="0 0 0 0 0.8 0 0 0 0 0.470588 0 0 0 0 0.262745 0 0 0 1 0"/>
<feBlend mode="normal" in2="effect2_innerShadow_16_8" result="effect3_innerShadow_16_8"/>
</filter>
<filter id="filter6_di_16_8" x="411.915" y="394.226" width="21.5801" height="28.0036" filterUnits="userSpaceOnUse" color-interpolation-filters="sRGB">
<feFlood flood-opacity="0" result="BackgroundImageFix"/>
<feColorMatrix in="SourceAlpha" type="matrix" values="0 0 0 0 0 0 0 0 0 0 0 0 0 0 0 0 0 0 127 0" result="hardAlpha"/>
<feOffset dx="-0.373626"/>
<feComposite in2="hardAlpha" operator="out"/>
<feColorMatrix type="matrix" values="0 0 0 0 0.8 0 0 0 0 0.470588 0 0 0 0 0.262745 0 0 0 1 0"/>
<feBlend mode="normal" in2="BackgroundImageFix" result="effect1_dropShadow_16_8"/>
<feBlend mode="normal" in="SourceGraphic" in2="effect1_dropShadow_16_8" result="shape"/>
<feColorMatrix in="SourceAlpha" type="matrix" values="0 0 0 0 0 0 0 0 0 0 0 0 0 0 0 0 0 0 127 0" result="hardAlpha"/>
<feOffset dx="-0.747253"/>
<feComposite in2="hardAlpha" operator="arithmetic" k2="-1" k3="1"/>
<feColorMatrix type="matrix" values="0 0 0 0 0.8 0 0 0 0 0.470588 0 0 0 0 0.262745 0 0 0 1 0"/>
<feBlend mode="normal" in2="shape" result="effect2_innerShadow_16_8"/>
</filter>
<filter id="filter7_iii_16_8" x="414.473" y="405.913" width="34.5663" height="23.2479" filterUnits="userSpaceOnUse" color-interpolation-filters="sRGB">
<feFlood flood-opacity="0" result="BackgroundImageFix"/>
<feBlend mode="normal" in="SourceGraphic" in2="BackgroundImageFix" result="shape"/>
<feColorMatrix in="SourceAlpha" type="matrix" values="0 0 0 0 0 0 0 0 0 0 0 0 0 0 0 0 0 0 127 0" result="hardAlpha"/>
<feOffset dx="-2.05494" dy="-0.747253"/>
<feComposite in2="hardAlpha" operator="arithmetic" k2="-1" k3="1"/>
<feColorMatrix type="matrix" values="0 0 0 0 0.380392 0 0 0 0 0.172549 0 0 0 0 0.0156863 0 0 0 1 0"/>
<feBlend mode="normal" in2="shape" result="effect1_innerShadow_16_8"/>
<feColorMatrix in="SourceAlpha" type="matrix" values="0 0 0 0 0 0 0 0 0 0 0 0 0 0 0 0 0 0 127 0" result="hardAlpha"/>
<feOffset dx="-6.72527" dy="-2.8022"/>
<feComposite in2="hardAlpha" operator="arithmetic" k2="-1" k3="1"/>
<feColorMatrix type="matrix" values="0 0 0 0 0.384314 0 0 0 0 0.160784 0 0 0 0 0.027451 0 0 0 0.44 0"/>
<feBlend mode="normal" in2="effect1_innerShadow_16_8" result="effect2_innerShadow_16_8"/>
<feColorMatrix in="SourceAlpha" type="matrix" values="0 0 0 0 0 0 0 0 0 0 0 0 0 0 0 0 0 0 127 0" result="hardAlpha"/>
<feOffset dx="0.373626"/>
<feComposite in2="hardAlpha" operator="arithmetic" k2="-1" k3="1"/>
<feColorMatrix type="matrix" values="0 0 0 0 0.8 0 0 0 0 0.470588 0 0 0 0 0.262745 0 0 0 1 0"/>
<feBlend mode="normal" in2="effect2_innerShadow_16_8" result="effect3_innerShadow_16_8"/>
</filter>
<filter id="filter8_di_16_8" x="415.197" y="410.433" width="32.6953" height="14.5487" filterUnits="userSpaceOnUse" color-interpolation-filters="sRGB">
<feFlood flood-opacity="0" result="BackgroundImageFix"/>
<feColorMatrix in="SourceAlpha" type="matrix" values="0 0 0 0 0 0 0 0 0 0 0 0 0 0 0 0 0 0 127 0" result="hardAlpha"/>
<feOffset dx="-0.373626"/>
<feComposite in2="hardAlpha" operator="out"/>
<feColorMatrix type="matrix" values="0 0 0 0 0.8 0 0 0 0 0.470588 0 0 0 0 0.262745 0 0 0 1 0"/>
<feBlend mode="normal" in2="BackgroundImageFix" result="effect1_dropShadow_16_8"/>
<feBlend mode="normal" in="SourceGraphic" in2="effect1_dropShadow_16_8" result="shape"/>
<feColorMatrix in="SourceAlpha" type="matrix" values="0 0 0 0 0 0 0 0 0 0 0 0 0 0 0 0 0 0 127 0" result="hardAlpha"/>
<feOffset dx="-0.747253"/>
<feComposite in2="hardAlpha" operator="arithmetic" k2="-1" k3="1"/>
<feColorMatrix type="matrix" values="0 0 0 0 0.8 0 0 0 0 0.470588 0 0 0 0 0.262745 0 0 0 1 0"/>
<feBlend mode="normal" in2="shape" result="effect2_innerShadow_16_8"/>
</filter>
<filter id="filter9_iii_16_8" x="484.872" y="84.3051" width="30.0854" height="30.7068" filterUnits="userSpaceOnUse" color-interpolation-filters="sRGB">
<feFlood flood-opacity="0" result="BackgroundImageFix"/>
<feBlend mode="normal" in="SourceGraphic" in2="BackgroundImageFix" result="shape"/>
<feColorMatrix in="SourceAlpha" type="matrix" values="0 0 0 0 0 0 0 0 0 0 0 0 0 0 0 0 0 0 127 0" result="hardAlpha"/>
<feOffset dx="-2.05494" dy="-1.12088"/>
<feComposite in2="hardAlpha" operator="arithmetic" k2="-1" k3="1"/>
<feColorMatrix type="matrix" values="0 0 0 0 0.380392 0 0 0 0 0.172549 0 0 0 0 0.0156863 0 0 0 1 0"/>
<feBlend mode="normal" in2="shape" result="effect1_innerShadow_16_8"/>
<feColorMatrix in="SourceAlpha" type="matrix" values="0 0 0 0 0 0 0 0 0 0 0 0 0 0 0 0 0 0 127 0" result="hardAlpha"/>
<feOffset dx="-6.72527" dy="-2.8022"/>
<feComposite in2="hardAlpha" operator="arithmetic" k2="-1" k3="1"/>
<feColorMatrix type="matrix" values="0 0 0 0 0.384314 0 0 0 0 0.160784 0 0 0 0 0.027451 0 0 0 0.44 0"/>
<feBlend mode="normal" in2="effect1_innerShadow_16_8" result="effect2_innerShadow_16_8"/>
<feColorMatrix in="SourceAlpha" type="matrix" values="0 0 0 0 0 0 0 0 0 0 0 0 0 0 0 0 0 0 127 0" result="hardAlpha"/>
<feOffset dx="0.56044" dy="0.373626"/>
<feComposite in2="hardAlpha" operator="arithmetic" k2="-1" k3="1"/>
<feColorMatrix type="matrix" values="0 0 0 0 0.8 0 0 0 0 0.470588 0 0 0 0 0.262745 0 0 0 1 0"/>
<feBlend mode="normal" in2="effect2_innerShadow_16_8" result="effect3_innerShadow_16_8"/>
</filter>
<filter id="filter10_di_16_8" x="488.915" y="86.2259" width="21.58" height="28.0036" filterUnits="userSpaceOnUse" color-interpolation-filters="sRGB">
<feFlood flood-opacity="0" result="BackgroundImageFix"/>
<feColorMatrix in="SourceAlpha" type="matrix" values="0 0 0 0 0 0 0 0 0 0 0 0 0 0 0 0 0 0 127 0" result="hardAlpha"/>
<feOffset dx="-0.373626"/>
<feComposite in2="hardAlpha" operator="out"/>
<feColorMatrix type="matrix" values="0 0 0 0 0.8 0 0 0 0 0.470588 0 0 0 0 0.262745 0 0 0 1 0"/>
<feBlend mode="normal" in2="BackgroundImageFix" result="effect1_dropShadow_16_8"/>
<feBlend mode="normal" in="SourceGraphic" in2="effect1_dropShadow_16_8" result="shape"/>
<feColorMatrix in="SourceAlpha" type="matrix" values="0 0 0 0 0 0 0 0 0 0 0 0 0 0 0 0 0 0 127 0" result="hardAlpha"/>
<feOffset dx="-0.747253"/>
<feComposite in2="hardAlpha" operator="arithmetic" k2="-1" k3="1"/>
<feColorMatrix type="matrix" values="0 0 0 0 0.8 0 0 0 0 0.470588 0 0 0 0 0.262745 0 0 0 1 0"/>
<feBlend mode="normal" in2="shape" result="effect2_innerShadow_16_8"/>
</filter>
<filter id="filter11_iii_16_8" x="491.474" y="97.9132" width="34.5663" height="23.248" filterUnits="userSpaceOnUse" color-interpolation-filters="sRGB">
<feFlood flood-opacity="0" result="BackgroundImageFix"/>
<feBlend mode="normal" in="SourceGraphic" in2="BackgroundImageFix" result="shape"/>
<feColorMatrix in="SourceAlpha" type="matrix" values="0 0 0 0 0 0 0 0 0 0 0 0 0 0 0 0 0 0 127 0" result="hardAlpha"/>
<feOffset dx="-2.05494" dy="-0.747253"/>
<feComposite in2="hardAlpha" operator="arithmetic" k2="-1" k3="1"/>
<feColorMatrix type="matrix" values="0 0 0 0 0.380392 0 0 0 0 0.172549 0 0 0 0 0.0156863 0 0 0 1 0"/>
<feBlend mode="normal" in2="shape" result="effect1_innerShadow_16_8"/>
<feColorMatrix in="SourceAlpha" type="matrix" values="0 0 0 0 0 0 0 0 0 0 0 0 0 0 0 0 0 0 127 0" result="hardAlpha"/>
<feOffset dx="-6.72527" dy="-2.8022"/>
<feComposite in2="hardAlpha" operator="arithmetic" k2="-1" k3="1"/>
<feColorMatrix type="matrix" values="0 0 0 0 0.384314 0 0 0 0 0.160784 0 0 0 0 0.027451 0 0 0 0.44 0"/>
<feBlend mode="normal" in2="effect1_innerShadow_16_8" result="effect2_innerShadow_16_8"/>
<feColorMatrix in="SourceAlpha" type="matrix" values="0 0 0 0 0 0 0 0 0 0 0 0 0 0 0 0 0 0 127 0" result="hardAlpha"/>
<feOffset dx="0.373626"/>
<feComposite in2="hardAlpha" operator="arithmetic" k2="-1" k3="1"/>
<feColorMatrix type="matrix" values="0 0 0 0 0.8 0 0 0 0 0.470588 0 0 0 0 0.262745 0 0 0 1 0"/>
<feBlend mode="normal" in2="effect2_innerShadow_16_8" result="effect3_innerShadow_16_8"/>
</filter>
<filter id="filter12_di_16_8" x="492.197" y="102.433" width="32.6953" height="14.5487" filterUnits="userSpaceOnUse" color-interpolation-filters="sRGB">
<feFlood flood-opacity="0" result="BackgroundImageFix"/>
<feColorMatrix in="SourceAlpha" type="matrix" values="0 0 0 0 0 0 0 0 0 0 0 0 0 0 0 0 0 0 127 0" result="hardAlpha"/>
<feOffset dx="-0.373626"/>
<feComposite in2="hardAlpha" operator="out"/>
<feColorMatrix type="matrix" values="0 0 0 0 0.8 0 0 0 0 0.470588 0 0 0 0 0.262745 0 0 0 1 0"/>
<feBlend mode="normal" in2="BackgroundImageFix" result="effect1_dropShadow_16_8"/>
<feBlend mode="normal" in="SourceGraphic" in2="effect1_dropShadow_16_8" result="shape"/>
<feColorMatrix in="SourceAlpha" type="matrix" values="0 0 0 0 0 0 0 0 0 0 0 0 0 0 0 0 0 0 127 0" result="hardAlpha"/>
<feOffset dx="-0.747253"/>
<feComposite in2="hardAlpha" operator="arithmetic" k2="-1" k3="1"/>
<feColorMatrix type="matrix" values="0 0 0 0 0.8 0 0 0 0 0.470588 0 0 0 0 0.262745 0 0 0 1 0"/>
<feBlend mode="normal" in2="shape" result="effect2_innerShadow_16_8"/>
</filter>
<filter id="filter13_iii_16_8" x="160.872" y="70.3051" width="30.0854" height="30.7068" filterUnits="userSpaceOnUse" color-interpolation-filters="sRGB">
<feFlood flood-opacity="0" result="BackgroundImageFix"/>
<feBlend mode="normal" in="SourceGraphic" in2="BackgroundImageFix" result="shape"/>
<feColorMatrix in="SourceAlpha" type="matrix" values="0 0 0 0 0 0 0 0 0 0 0 0 0 0 0 0 0 0 127 0" result="hardAlpha"/>
<feOffset dx="-2.05494" dy="-1.12088"/>
<feComposite in2="hardAlpha" operator="arithmetic" k2="-1" k3="1"/>
<feColorMatrix type="matrix" values="0 0 0 0 0.380392 0 0 0 0 0.172549 0 0 0 0 0.0156863 0 0 0 1 0"/>
<feBlend mode="normal" in2="shape" result="effect1_innerShadow_16_8"/>
<feColorMatrix in="SourceAlpha" type="matrix" values="0 0 0 0 0 0 0 0 0 0 0 0 0 0 0 0 0 0 127 0" result="hardAlpha"/>
<feOffset dx="-6.72527" dy="-2.8022"/>
<feComposite in2="hardAlpha" operator="arithmetic" k2="-1" k3="1"/>
<feColorMatrix type="matrix" values="0 0 0 0 0.384314 0 0 0 0 0.160784 0 0 0 0 0.027451 0 0 0 0.44 0"/>
<feBlend mode="normal" in2="effect1_innerShadow_16_8" result="effect2_innerShadow_16_8"/>
<feColorMatrix in="SourceAlpha" type="matrix" values="0 0 0 0 0 0 0 0 0 0 0 0 0 0 0 0 0 0 127 0" result="hardAlpha"/>
<feOffset dx="0.56044" dy="0.373626"/>
<feComposite in2="hardAlpha" operator="arithmetic" k2="-1" k3="1"/>
<feColorMatrix type="matrix" values="0 0 0 0 0.8 0 0 0 0 0.470588 0 0 0 0 0.262745 0 0 0 1 0"/>
<feBlend mode="normal" in2="effect2_innerShadow_16_8" result="effect3_innerShadow_16_8"/>
</filter>
<filter id="filter14_di_16_8" x="164.915" y="72.2259" width="21.5801" height="28.0036" filterUnits="userSpaceOnUse" color-interpolation-filters="sRGB">
<feFlood flood-opacity="0" result="BackgroundImageFix"/>
<feColorMatrix in="SourceAlpha" type="matrix" values="0 0 0 0 0 0 0 0 0 0 0 0 0 0 0 0 0 0 127 0" result="hardAlpha"/>
<feOffset dx="-0.373626"/>
<feComposite in2="hardAlpha" operator="out"/>
<feColorMatrix type="matrix" values="0 0 0 0 0.8 0 0 0 0 0.470588 0 0 0 0 0.262745 0 0 0 1 0"/>
<feBlend mode="normal" in2="BackgroundImageFix" result="effect1_dropShadow_16_8"/>
<feBlend mode="normal" in="SourceGraphic" in2="effect1_dropShadow_16_8" result="shape"/>
<feColorMatrix in="SourceAlpha" type="matrix" values="0 0 0 0 0 0 0 0 0 0 0 0 0 0 0 0 0 0 127 0" result="hardAlpha"/>
<feOffset dx="-0.747253"/>
<feComposite in2="hardAlpha" operator="arithmetic" k2="-1" k3="1"/>
<feColorMatrix type="matrix" values="0 0 0 0 0.8 0 0 0 0 0.470588 0 0 0 0 0.262745 0 0 0 1 0"/>
<feBlend mode="normal" in2="shape" result="effect2_innerShadow_16_8"/>
</filter>
<filter id="filter15_iii_16_8" x="167.473" y="83.9132" width="34.5663" height="23.248" filterUnits="userSpaceOnUse" color-interpolation-filters="sRGB">
<feFlood flood-opacity="0" result="BackgroundImageFix"/>
<feBlend mode="normal" in="SourceGraphic" in2="BackgroundImageFix" result="shape"/>
<feColorMatrix in="SourceAlpha" type="matrix" values="0 0 0 0 0 0 0 0 0 0 0 0 0 0 0 0 0 0 127 0" result="hardAlpha"/>
<feOffset dx="-2.05494" dy="-0.747253"/>
<feComposite in2="hardAlpha" operator="arithmetic" k2="-1" k3="1"/>
<feColorMatrix type="matrix" values="0 0 0 0 0.380392 0 0 0 0 0.172549 0 0 0 0 0.0156863 0 0 0 1 0"/>
<feBlend mode="normal" in2="shape" result="effect1_innerShadow_16_8"/>
<feColorMatrix in="SourceAlpha" type="matrix" values="0 0 0 0 0 0 0 0 0 0 0 0 0 0 0 0 0 0 127 0" result="hardAlpha"/>
<feOffset dx="-6.72527" dy="-2.8022"/>
<feComposite in2="hardAlpha" operator="arithmetic" k2="-1" k3="1"/>
<feColorMatrix type="matrix" values="0 0 0 0 0.384314 0 0 0 0 0.160784 0 0 0 0 0.027451 0 0 0 0.44 0"/>
<feBlend mode="normal" in2="effect1_innerShadow_16_8" result="effect2_innerShadow_16_8"/>
<feColorMatrix in="SourceAlpha" type="matrix" values="0 0 0 0 0 0 0 0 0 0 0 0 0 0 0 0 0 0 127 0" result="hardAlpha"/>
<feOffset dx="0.373626"/>
<feComposite in2="hardAlpha" operator="arithmetic" k2="-1" k3="1"/>
<feColorMatrix type="matrix" values="0 0 0 0 0.8 0 0 0 0 0.470588 0 0 0 0 0.262745 0 0 0 1 0"/>
<feBlend mode="normal" in2="effect2_innerShadow_16_8" result="effect3_innerShadow_16_8"/>
</filter>
<filter id="filter16_di_16_8" x="168.197" y="88.4331" width="32.6953" height="14.5487" filterUnits="userSpaceOnUse" color-interpolation-filters="sRGB">
<feFlood flood-opacity="0" result="BackgroundImageFix"/>
<feColorMatrix in="SourceAlpha" type="matrix" values="0 0 0 0 0 0 0 0 0 0 0 0 0 0 0 0 0 0 127 0" result="hardAlpha"/>
<feOffset dx="-0.373626"/>
<feComposite in2="hardAlpha" operator="out"/>
<feColorMatrix type="matrix" values="0 0 0 0 0.8 0 0 0 0 0.470588 0 0 0 0 0.262745 0 0 0 1 0"/>
<feBlend mode="normal" in2="BackgroundImageFix" result="effect1_dropShadow_16_8"/>
<feBlend mode="normal" in="SourceGraphic" in2="effect1_dropShadow_16_8" result="shape"/>
<feColorMatrix in="SourceAlpha" type="matrix" values="0 0 0 0 0 0 0 0 0 0 0 0 0 0 0 0 0 0 127 0" result="hardAlpha"/>
<feOffset dx="-0.747253"/>
<feComposite in2="hardAlpha" operator="arithmetic" k2="-1" k3="1"/>
<feColorMatrix type="matrix" values="0 0 0 0 0.8 0 0 0 0 0.470588 0 0 0 0 0.262745 0 0 0 1 0"/>
<feBlend mode="normal" in2="shape" result="effect2_innerShadow_16_8"/>
</filter>
<filter id="filter17_iii_16_8" x="233.872" y="290.305" width="30.0854" height="30.7067" filterUnits="userSpaceOnUse" color-interpolation-filters="sRGB">
<feFlood flood-opacity="0" result="BackgroundImageFix"/>
<feBlend mode="normal" in="SourceGraphic" in2="BackgroundImageFix" result="shape"/>
<feColorMatrix in="SourceAlpha" type="matrix" values="0 0 0 0 0 0 0 0 0 0 0 0 0 0 0 0 0 0 127 0" result="hardAlpha"/>
<feOffset dx="-2.05494" dy="-1.12088"/>
<feComposite in2="hardAlpha" operator="arithmetic" k2="-1" k3="1"/>
<feColorMatrix type="matrix" values="0 0 0 0 0.380392 0 0 0 0 0.172549 0 0 0 0 0.0156863 0 0 0 1 0"/>
<feBlend mode="normal" in2="shape" result="effect1_innerShadow_16_8"/>
<feColorMatrix in="SourceAlpha" type="matrix" values="0 0 0 0 0 0 0 0 0 0 0 0 0 0 0 0 0 0 127 0" result="hardAlpha"/>
<feOffset dx="-6.72527" dy="-2.8022"/>
<feComposite in2="hardAlpha" operator="arithmetic" k2="-1" k3="1"/>
<feColorMatrix type="matrix" values="0 0 0 0 0.384314 0 0 0 0 0.160784 0 0 0 0 0.027451 0 0 0 0.44 0"/>
<feBlend mode="normal" in2="effect1_innerShadow_16_8" result="effect2_innerShadow_16_8"/>
<feColorMatrix in="SourceAlpha" type="matrix" values="0 0 0 0 0 0 0 0 0 0 0 0 0 0 0 0 0 0 127 0" result="hardAlpha"/>
<feOffset dx="0.56044" dy="0.373626"/>
<feComposite in2="hardAlpha" operator="arithmetic" k2="-1" k3="1"/>
<feColorMatrix type="matrix" values="0 0 0 0 0.8 0 0 0 0 0.470588 0 0 0 0 0.262745 0 0 0 1 0"/>
<feBlend mode="normal" in2="effect2_innerShadow_16_8" result="effect3_innerShadow_16_8"/>
</filter>
<filter id="filter18_di_16_8" x="237.915" y="292.226" width="21.5801" height="28.0036" filterUnits="userSpaceOnUse" color-interpolation-filters="sRGB">
<feFlood flood-opacity="0" result="BackgroundImageFix"/>
<feColorMatrix in="SourceAlpha" type="matrix" values="0 0 0 0 0 0 0 0 0 0 0 0 0 0 0 0 0 0 127 0" result="hardAlpha"/>
<feOffset dx="-0.373626"/>
<feComposite in2="hardAlpha" operator="out"/>
<feColorMatrix type="matrix" values="0 0 0 0 0.8 0 0 0 0 0.470588 0 0 0 0 0.262745 0 0 0 1 0"/>
<feBlend mode="normal" in2="BackgroundImageFix" result="effect1_dropShadow_16_8"/>
<feBlend mode="normal" in="SourceGraphic" in2="effect1_dropShadow_16_8" result="shape"/>
<feColorMatrix in="SourceAlpha" type="matrix" values="0 0 0 0 0 0 0 0 0 0 0 0 0 0 0 0 0 0 127 0" result="hardAlpha"/>
<feOffset dx="-0.747253"/>
<feComposite in2="hardAlpha" operator="arithmetic" k2="-1" k3="1"/>
<feColorMatrix type="matrix" values="0 0 0 0 0.8 0 0 0 0 0.470588 0 0 0 0 0.262745 0 0 0 1 0"/>
<feBlend mode="normal" in2="shape" result="effect2_innerShadow_16_8"/>
</filter>
<filter id="filter19_iii_16_8" x="240.473" y="303.913" width="34.5663" height="23.2479" filterUnits="userSpaceOnUse" color-interpolation-filters="sRGB">
<feFlood flood-opacity="0" result="BackgroundImageFix"/>
<feBlend mode="normal" in="SourceGraphic" in2="BackgroundImageFix" result="shape"/>
<feColorMatrix in="SourceAlpha" type="matrix" values="0 0 0 0 0 0 0 0 0 0 0 0 0 0 0 0 0 0 127 0" result="hardAlpha"/>
<feOffset dx="-2.05494" dy="-0.747253"/>
<feComposite in2="hardAlpha" operator="arithmetic" k2="-1" k3="1"/>
<feColorMatrix type="matrix" values="0 0 0 0 0.380392 0 0 0 0 0.172549 0 0 0 0 0.0156863 0 0 0 1 0"/>
<feBlend mode="normal" in2="shape" result="effect1_innerShadow_16_8"/>
<feColorMatrix in="SourceAlpha" type="matrix" values="0 0 0 0 0 0 0 0 0 0 0 0 0 0 0 0 0 0 127 0" result="hardAlpha"/>
<feOffset dx="-6.72527" dy="-2.8022"/>
<feComposite in2="hardAlpha" operator="arithmetic" k2="-1" k3="1"/>
<feColorMatrix type="matrix" values="0 0 0 0 0.384314 0 0 0 0 0.160784 0 0 0 0 0.027451 0 0 0 0.44 0"/>
<feBlend mode="normal" in2="effect1_innerShadow_16_8" result="effect2_innerShadow_16_8"/>
<feColorMatrix in="SourceAlpha" type="matrix" values="0 0 0 0 0 0 0 0 0 0 0 0 0 0 0 0 0 0 127 0" result="hardAlpha"/>
<feOffset dx="0.373626"/>
<feComposite in2="hardAlpha" operator="arithmetic" k2="-1" k3="1"/>
<feColorMatrix type="matrix" values="0 0 0 0 0.8 0 0 0 0 0.470588 0 0 0 0 0.262745 0 0 0 1 0"/>
<feBlend mode="normal" in2="effect2_innerShadow_16_8" result="effect3_innerShadow_16_8"/>
</filter>
<filter id="filter20_di_16_8" x="241.197" y="308.433" width="32.6953" height="14.5487" filterUnits="userSpaceOnUse" color-interpolation-filters="sRGB">
<feFlood flood-opacity="0" result="BackgroundImageFix"/>
<feColorMatrix in="SourceAlpha" type="matrix" values="0 0 0 0 0 0 0 0 0 0 0 0 0 0 0 0 0 0 127 0" result="hardAlpha"/>
<feOffset dx="-0.373626"/>
<feComposite in2="hardAlpha" operator="out"/>
<feColorMatrix type="matrix" values="0 0 0 0 0.8 0 0 0 0 0.470588 0 0 0 0 0.262745 0 0 0 1 0"/>
<feBlend mode="normal" in2="BackgroundImageFix" result="effect1_dropShadow_16_8"/>
<feBlend mode="normal" in="SourceGraphic" in2="effect1_dropShadow_16_8" result="shape"/>
<feColorMatrix in="SourceAlpha" type="matrix" values="0 0 0 0 0 0 0 0 0 0 0 0 0 0 0 0 0 0 127 0" result="hardAlpha"/>
<feOffset dx="-0.747253"/>
<feComposite in2="hardAlpha" operator="arithmetic" k2="-1" k3="1"/>
<feColorMatrix type="matrix" values="0 0 0 0 0.8 0 0 0 0 0.470588 0 0 0 0 0.262745 0 0 0 1 0"/>
<feBlend mode="normal" in2="shape" result="effect2_innerShadow_16_8"/>
</filter>
</defs>
</svg>